<?xml version="1.0" standalone="no"?><!DOCTYPE svg PUBLIC "-//W3C//DTD SVG 1.1//EN" "http://www.w3.org/Graphics/SVG/1.1/DTD/svg11.dtd"><svg t="1617628954256" class="icon" viewBox="0 0 1024 1024" version="1.1" xmlns="http://www.w3.org/2000/svg" p-id="3227" xmlns:xlink="http://www.w3.org/1999/xlink" width="48" height="48"><defs><style type="text/css"></style></defs><path d="M249.105067 221.866667a27.272533 27.272533 0 0 0-27.2384 27.2384v167.389866c0 15.018667 12.219733 27.2384 27.2384 27.2384h167.424c14.984533 0 27.204267-12.219733 27.204266-27.2384V249.105067a27.272533 27.272533 0 0 0-27.204266-27.2384H249.105067z m167.424 273.066666H249.105067A78.506667 78.506667 0 0 1 170.666667 416.494933V249.105067A78.506667 78.506667 0 0 1 249.105067 170.666667h167.424A78.506667 78.506667 0 0 1 494.933333 249.105067v167.389866a78.506667 78.506667 0 0 1-78.404266 78.4384zM249.105067 580.266667a27.272533 27.272533 0 0 0-27.2384 27.2384v167.389866c0 15.018667 12.219733 27.2384 27.2384 27.2384h167.424c14.984533 0 27.204267-12.219733 27.204266-27.2384v-167.389866a27.272533 27.272533 0 0 0-27.204266-27.2384H249.105067z m167.424 273.066666H249.105067A78.506667 78.506667 0 0 1 170.666667 774.894933v-167.389866A78.506667 78.506667 0 0 1 249.105067 529.066667h167.424a78.506667 78.506667 0 0 1 78.404266 78.4384v167.389866A78.506667 78.506667 0 0 1 416.529067 853.333333z m190.976-273.066666a27.272533 27.272533 0 0 0-27.2384 27.2384v167.389866c0 15.018667 12.219733 27.2384 27.2384 27.2384h167.424c14.984533 0 27.204267-12.219733 27.204266-27.2384v-167.389866a27.272533 27.272533 0 0 0-27.204266-27.2384h-167.424z m167.424 273.066666h-167.424a78.506667 78.506667 0 0 1-78.4384-78.4384v-167.389866a78.506667 78.506667 0 0 1 78.4384-78.4384h167.424A78.506667 78.506667 0 0 1 853.333333 607.505067v167.389866A78.506667 78.506667 0 0 1 774.929067 853.333333zM691.2 221.866667A111.069867 111.069867 0 0 0 580.266667 332.8 111.069867 111.069867 0 0 0 691.2 443.733333a111.069867 111.069867 0 0 0 110.933333-110.933333 111.069867 111.069867 0 0 0-110.933333-110.933333z m0 273.066666a162.338133 162.338133 0 0 1-162.133333-162.133333A162.338133 162.338133 0 0 1 691.2 170.666667 162.338133 162.338133 0 0 1 853.333333 332.8a162.338133 162.338133 0 0 1-162.133333 162.133333z" p-id="3228" fill="#1296db"></path></svg>