<?xml version="1.0" standalone="no"?><!DOCTYPE svg PUBLIC "-//W3C//DTD SVG 1.1//EN" "http://www.w3.org/Graphics/SVG/1.1/DTD/svg11.dtd"><svg t="1617628872115" class="icon" viewBox="0 0 1024 1024" version="1.1" xmlns="http://www.w3.org/2000/svg" p-id="2085" width="48" height="48" xmlns:xlink="http://www.w3.org/1999/xlink"><defs><style type="text/css"></style></defs><path d="M982.4 422.4l-448-384c-12.8-9.6-28.8-9.6-41.6 0l-448 384c-12.8 12.8-16 32-3.2 44.8 12.8 12.8 32 16 44.8 3.2L512 105.6l425.6 364.8c6.4 6.4 12.8 6.4 22.4 6.4 9.6 0 19.2-3.2 25.6-9.6 9.6-12.8 9.6-32-3.2-44.8z" p-id="2086" fill="#1296db"></path><path d="M531.2 198.4c-12.8-9.6-28.8-9.6-41.6 0l-352 288c-6.4 6.4-9.6 16-9.6 25.6v384c0 54.4 41.6 96 96 96h192c19.2 0 32-12.8 32-32v-144c0-25.6 22.4-48 48-48h32c25.6 0 48 22.4 48 48V960c0 19.2 12.8 32 32 32h192c54.4 0 96-41.6 96-96V512c0-9.6-3.2-19.2-12.8-25.6l-352-288zM832 896c0 19.2-12.8 32-32 32h-160v-112c0-60.8-51.2-112-112-112h-32c-60.8 0-112 51.2-112 112V928H224c-19.2 0-32-12.8-32-32V528l320-262.4 320 262.4V896z" p-id="2087" fill="#1296db"></path></svg>